HIERARCHY
ROOT Hips
{
	OFFSET 0.00000 0.00000 0.00000
	CHANNELS 6 Xposition Yposition Zposition Zrotation Yrotation Xrotation 
	JOINT RightUpLegDummy
	{
		OFFSET 0 0 0
		CHANNELS 3 Zrotation Yrotation Xrotation
		JOINT RightUpLeg
		{
			OFFSET -3.52197 -3.41223 0.04002
			CHANNELS 3 Zrotation Yrotation Xrotation
			JOINT RightLeg
			{
				OFFSET 0.00006 -17.42390 1.60435
				CHANNELS 3 Zrotation Yrotation Xrotation
				JOINT RightFoot
				{
					OFFSET 0.06153 -16.50078 -1.63901
					CHANNELS 3 Zrotation Yrotation Xrotation
					JOINT RightToes
					{
						OFFSET 0.00298 -1.73825 3.34613
						CHANNELS 3 Zrotation Yrotation Xrotation
						End Site
						{
							OFFSET 0.00480 -0.05416 3.85043
						}
					}
				}
			}
		}
	}
	JOINT SpineDummy
	{
		OFFSET 0 0 0
		CHANNELS 3 Zrotation Yrotation Xrotation
		JOINT Spine
		{
			OFFSET 0.00000 4.68130 0.00000
			CHANNELS 3 Zrotation Yrotation Xrotation
			JOINT Spine1
			{
				OFFSET -0.00000 10.10138 0.05002
				CHANNELS 3 Zrotation Yrotation Xrotation
				JOINT HEadDummy
				{
					OFFSET 0 0 0
					CHANNELS 3 Zrotation Yrotation Xrotation
					JOINT Head
					{
						OFFSET -0.00000 3.43865 0.00438
						CHANNELS 3 Zrotation Yrotation Xrotation
						End Site
						{
							OFFSET -0.11417 5.02924 0.98962
						}
					}
				}
				JOINT LeftShoulder1Dummy
				{
					OFFSET 0 0 0
					CHANNELS 3 Zrotation Yrotation Xrotation
					JOINT LeftShoulder1
					{
						OFFSET 3.53937 -0.14262 -0.08662
						CHANNELS 3 Zrotation Yrotation Xrotation
						JOINT LeftArm
						{
							OFFSET 4.04833 -0.00133 0.12681
							CHANNELS 3 Zrotation Yrotation Xrotation
							JOINT LeftForeArm
							{
								OFFSET 10.33880 -0.01036 -0.55515
								CHANNELS 3 Zrotation Yrotation Xrotation
								JOINT LeftHand
								{
									OFFSET 8.69677 0.07543 0.40060
									CHANNELS 3 Zrotation Yrotation Xrotation
									End Site
									{
										OFFSET 5.28377 -0.21905 0.59205
									}
								}
							}
						}
					}
				}
				JOINT RightShoulderDummy
				{
					OFFSET 0 0 0
					CHANNELS 3 Zrotation Yrotation Xrotation
					JOINT RightShoulder
					{
						OFFSET -3.53937 -0.14262 -0.08660
						CHANNELS 3 Zrotation Yrotation Xrotation
						JOINT RightArm
						{
							OFFSET -4.04833 -0.00133 0.12683
							CHANNELS 3 Zrotation Yrotation Xrotation
							JOINT RightForeArm
							{
								OFFSET -10.37987 -0.01039 -0.55511
								CHANNELS 3 Zrotation Yrotation Xrotation
								JOINT RightHand
								{
									OFFSET -8.67398 0.07538 0.40058
									CHANNELS 3 Zrotation Yrotation Xrotation
									End Site
									{
										OFFSET -5.24810 -0.21916 0.59204
									}
								}
							}
						}
					}
				}
			}
		}
	}
	JOINT LeftUpLegDummy
	{
		OFFSET 0 0 0
		CHANNELS 3 Zrotation Yrotation Xrotation
		JOINT LeftUpLeg
		{
			OFFSET 3.52197 -3.41223 0.04002
			CHANNELS 3 Zrotation Yrotation Xrotation
			JOINT LeftLeg
			{
				OFFSET -0.00012 -17.42399 1.60337
				CHANNELS 3 Zrotation Yrotation Xrotation
				JOINT LeftFoot
				{
					OFFSET -0.09972 -16.50070 -1.63802
					CHANNELS 3 Zrotation Yrotation Xrotation
					JOINT LeftToes
					{
						OFFSET -0.01575 -1.73823 3.34611
						CHANNELS 3 Zrotation Yrotation Xrotation
						End Site
						{
							OFFSET 0.03150 -0.01868 3.85031
						}
					}
				}
			}
		}
	}
}
MOTION
Frames: 6
Frame Time: 0.033333
25.6015 38.4423 50.0562 -176.5050 -33.3962 173.0410 0.0000 0.0000 0.0000 0.9778 10.0672 -22.7374 -1.3270 -3.4086 10.5705 7.0235 -0.4718 -3.9134 0.0000 -0.0000 -0.0000 0.0000 0.0000 0.0000 -1.4114 -3.8159 12.2449 7.2414 -5.5051 -0.3071 -0.0000 0.0000 -0.0000 2.6280 -2.8990 -8.8398 -0.0000 0.0000 -0.0000 -33.0475 -2.9258 2.5118 -47.2787 -29.4542 -4.5969 -14.1023 1.3983 38.2514 14.8263 -4.7359 -1.2584 -0.0000 0.0000 -0.0000 34.2483 5.0122 3.4286 40.4019 5.5378 -6.1056 8.2982 13.7894 10.6074 -10.3160 2.1376 -0.6513 0.0000 0.0000 0.0000 -5.4627 1.5033 8.7584 -3.6939 -3.6413 15.0350 11.4231 0.8435 -18.6431 0.0000 0.0000 -0.0000
24.6272 38.3627 48.9403 -176.4260 -34.0756 173.2150 0.0000 0.0000 0.0000 4.4639 4.2913 -22.3266 0.4925 2.3397 2.3908 9.4191 -0.4542 -6.0979 0.0000 -0.0000 -0.0000 0.0000 0.0000 0.0000 -1.3740 -3.9192 12.1308 7.5349 -5.6493 -0.1552 -0.0000 0.0000 -0.0000 2.3048 -2.5391 -9.4151 -0.0000 0.0000 -0.0000 -33.2871 -2.9215 2.5256 -47.7897 -27.8990 -1.9216 -14.4903 -0.8974 36.7205 14.3648 -5.1378 -1.2645 -0.0000 0.0000 -0.0000 34.4281 5.0433 3.4567 39.5380 4.9889 -9.5838 9.3908 11.5279 14.4433 -9.9220 1.6649 -0.5883 0.0000 0.0000 0.0000 -5.6377 1.7710 12.2300 -3.4992 -3.8448 12.3260 12.8482 0.9371 -18.6495 0.0000 0.0000 -0.0000
23.6001 38.1340 47.7133 -176.5530 -34.8179 173.4140 0.0000 0.0000 0.0000 4.9802 4.5346 -22.3668 1.3901 -0.6154 -1.9462 10.8649 -0.2849 -8.7083 0.0000 -0.0000 -0.0000 0.0000 0.0000 0.0000 -1.9366 -4.0241 11.7811 8.3845 -5.9787 0.3241 -0.0000 0.0000 -0.0000 1.9211 -1.9589 -10.1682 -0.0000 0.0000 -0.0000 -33.5191 -2.9937 2.5691 -48.1050 -26.5862 -1.1638 -14.6333 -1.0184 37.4012 14.1661 -5.7719 -1.3189 -0.0000 0.0000 -0.0000 34.5298 5.0606 3.4725 38.8585 4.3161 -13.0713 10.2865 8.8508 17.2879 -10.9221 2.0023 -0.6800 0.0000 0.0000 0.0000 -5.6129 2.7030 15.0051 -3.7986 -4.7302 11.7632 13.5909 1.0082 -18.8341 0.0000 0.0000 -0.0000
22.4697 37.8754 46.3808 -176.8700 -35.7990 173.6060 0.0000 0.0000 0.0000 5.6056 5.0367 -22.1745 0.9058 -4.6680 -1.9048 10.4679 -0.1347 -10.3410 0.0000 -0.0000 -0.0000 0.0000 0.0000 0.0000 -2.6797 -4.3236 11.2575 9.3309 -6.5469 0.9705 -0.0000 0.0000 -0.0000 0.8722 -1.5782 -11.4694 -0.0000 0.0000 -0.0000 -33.8410 -3.0904 2.6288 -47.9551 -25.6737 -3.2994 -14.5727 1.6698 41.1776 13.8037 -6.4903 -1.3639 -0.0000 0.0000 -0.0000 34.5878 5.0631 3.4786 38.4225 3.4889 -16.3046 10.5855 5.9317 19.2575 -12.2793 2.4945 -0.8138 0.0000 0.0000 0.0000 -5.2335 4.7119 17.4429 -4.4984 -7.2707 12.8984 14.1695 0.9717 -18.2792 0.0000 0.0000 -0.0000
21.2094 37.6966 44.9755 -176.9060 -37.3633 173.6080 0.0000 0.0000 0.0000 6.2369 5.4024 -21.9286 -0.1644 -7.1074 1.5674 6.6436 -0.1416 -9.2332 0.0000 -0.0000 -0.0000 0.0000 0.0000 0.0000 -2.5873 -5.1795 10.5918 9.6135 -7.4767 1.3670 -0.0000 0.0000 -0.0000 -0.2769 -1.4312 -12.5053 -0.0000 0.0000 -0.0000 -34.4267 -3.1542 2.6936 -47.1792 -24.7280 -7.0534 -13.8597 5.1813 46.3466 13.2726 -6.7242 -1.3347 -0.0000 0.0000 -0.0000 34.7069 5.0694 3.4915 38.2076 2.2261 -18.7720 10.1250 3.0727 20.0616 -12.7151 2.3201 -0.8264 0.0000 0.0000 0.0000 -3.9757 7.8783 19.6763 -5.2049 -11.3796 15.1043 14.6739 0.7444 -16.4058 0.0000 0.0000 -0.0000
19.8557 37.6188 43.5607 -176.1530 -39.0163 173.2090 0.0000 0.0000 0.0000 7.1193 5.7671 -22.0152 -1.3002 -7.3707 6.4585 0.7996 -0.0535 -5.3903 0.0000 -0.0000 -0.0000 0.0000 0.0000 0.0000 -0.8974 -6.3348 9.9165 8.9597 -8.3842 0.9712 -0.0000 0.0000 -0.0000 -1.4669 -1.4268 -12.6459 -0.0000 0.0000 -0.0000 -35.1455 -3.1818 2.7536 -46.1917 -23.2877 -11.8015 -11.9521 5.0164 51.8936 13.4945 -5.8213 -1.2574 -0.0000 0.0000 -0.0000 34.7553 5.0683 3.4953 38.1720 0.3251 -21.2367 9.3605 0.2099 20.2515 -12.3750 1.5941 -0.7317 0.0000 0.0000 0.0000 -1.4745 10.9848 20.6360 -6.8632 -15.6058 19.6226 12.2053 0.2307 -12.7618 0.0000 0.0000 -0.0000
